<svg width="512" height="512" viewBox="0 0 512 512" fill="none" xmlns="http://www.w3.org/2000/svg">
<circle opacity="0.5" cx="256" cy="256" r="256" fill="#6A84C8"/>
<circle cx="256" cy="256" r="192" fill="#6A84C8"/>
<path d="M93.0909 314V197.636H132.409C141.538 197.636 149 199.284 154.795 202.58C160.629 205.837 164.947 210.25 167.75 215.818C170.553 221.386 171.955 227.598 171.955 234.455C171.955 241.311 170.553 247.542 167.75 253.148C164.985 258.754 160.705 263.223 154.909 266.557C149.114 269.852 141.689 271.5 132.636 271.5H104.455V259H132.182C138.432 259 143.451 257.92 147.239 255.761C151.027 253.602 153.773 250.686 155.477 247.011C157.22 243.299 158.091 239.114 158.091 234.455C158.091 229.795 157.22 225.629 155.477 221.955C153.773 218.28 151.008 215.402 147.182 213.318C143.356 211.197 138.28 210.136 131.955 210.136H107.182V314H93.0909ZM215.79 314L183.972 197.636H198.29L222.608 292.409H223.744L248.517 197.636H264.426L289.199 292.409H290.335L314.653 197.636H328.972L297.153 314H282.608L256.926 221.273H256.017L230.335 314H215.79ZM342.239 314H327.466L370.193 197.636H384.739L427.466 314H412.693L377.92 216.045H377.011L342.239 314ZM347.693 268.545H407.239V281.045H347.693V268.545Z" fill="white"/>
</svg>
